<?xml version="1.0" encoding="UTF-8"?><svg id="a" xmlns="http://www.w3.org/2000/svg" viewBox="0 0 107.388 128.018">
<style>
.h{fill:none;stroke:#fff;stroke-miterlimit:10;stroke-width:.25px}
.marker{fill:none;stroke:#fff;stroke-miterlimit:10;stroke-width:.25px}
</style>
<path class="marker" d="M70.405,27.028c1.164,.613,1.596,2.056,.983,3.213l-2.098,3.331-2.105-3.331c-.369-.697-.369-1.54,0-2.237,.62-1.157,2.063-1.596,3.22-.976Zm-.007,2.098c0-.613-.495-1.115-1.108-1.115-.62,0-1.115,.502-1.115,1.115s.495,1.108,1.115,1.108c.613,0,1.108-.495,1.108-1.108Z"/>
<path class="marker" d="M100.323,85.535c1.164,.613,1.596,2.056,.983,3.213l-2.098,3.331-2.105-3.331c-.369-.697-.369-1.54,0-2.237,.62-1.157,2.063-1.596,3.22-.976Zm-.007,2.098c0-.613-.495-1.115-1.108-1.115-.62,0-1.115,.502-1.115,1.115s.495,1.108,1.115,1.108c.613,0,1.108-.495,1.108-1.108Z"/>
<path class="marker" d="M55.304,88.404c1.164,.613,1.596,2.056,.983,3.213l-2.098,3.331-2.105-3.331c-.369-.697-.369-1.54,0-2.237,.62-1.157,2.063-1.596,3.22-.976Zm-.007,2.098c0-.613-.495-1.115-1.108-1.115-.62,0-1.115,.502-1.115,1.115s.495,1.108,1.115,1.108c.613,0,1.108-.495,1.108-1.108Z"/>
<path class="marker" d="M48.053,84.107c1.164,.613,1.596,2.056,.983,3.213l-2.098,3.331-2.105-3.331c-.369-.697-.369-1.54,0-2.237,.62-1.157,2.063-1.596,3.22-.976Zm-.007,2.098c0-.613-.495-1.115-1.108-1.115-.62,0-1.115,.502-1.115,1.115s.495,1.108,1.115,1.108c.613,0,1.108-.495,1.108-1.108Z"/>
<path class="h" d="M70.056,92.163c1.093-.59,1.653-.919,1.825-1.598,.228-.901-.417-1.656,.03-2.046,.25-.219,.544-.06,1.542-.03,1.122,.034,1.683,.051,2.076-.267,.667-.54,.566-1.799,.326-2.55-.243-.763-.723-1.295-1.512-1.957-1.521-1.275-2.908-1.954-3.499-2.254-2.344-1.19-4.602-2.335-6.227-4.448-.344-.448-1.327-1.751-1.839-3.677-.645-2.426,.145-3.257-.712-4.626-1.122-1.795-3.366-1.787-3.381-2.906-.007-.55,.53-.957,1.068-1.364,.901-.682,1.791-.888,5.397-1.423,1.673-.249,1.658-.231,1.839-.297,1.887-.689,1.778-2.023,3.618-3.262,1.844-1.243,2.849-.506,3.974-1.839,.746-.885,.412-1.337,1.305-2.491,.295-.381,1.226-1.584,2.728-2.016,1.962-.565,3.062,.714,4.211-.119,.767-.556,.981-1.637,1.068-2.076,.191-.967-.012-1.732-.059-1.898-.29-1.024-.828-1.226-1.898-2.55-1.062-1.316-1.943-2.406-1.779-3.618,.098-.724,.449-.608,.83-1.72,.125-.364,.752-2.191-.059-3.618-.287-.506-.424-.378-1.008-1.245-.778-1.154-.777-1.738-.771-1.898,.018-.5,.211-.5,.237-1.008,.051-.994-.652-1.771-.771-1.898-.568-.608-.89-.411-1.839-1.068-.694-.48-1.331-.922-1.483-1.601-.156-.7,.352-.99,1.186-2.847,.292-.651,.616-1.382,.83-2.372,.209-.966,.358-1.656,.119-2.432-.312-1.012-.902-.93-1.483-2.016-.801-1.499-.018-2.293-.771-3.203-.909-1.099-2.696-.718-2.787-1.305-.093-.597,1.758-1.019,1.72-1.898-.022-.495-.712-.703-1.068-.949-.367-.254-.408-.385-.504-.563-.071-.131-.135-.421-.356-.563-.564-.364-.562-.347-.979-.593-.391-.231-1.154,1.153-2.313,1.127-.234-.005-.676-.072-1.72-1.068-1.752-1.671-1.612-2.535-2.55-3.025-1.573-.82-3.869,.616-4.211,.83-2.005,1.255-3.006,3.451-4.329,3.262-.145-.021-.422-.089-.83-.059-.2,.014-.999,.072-1.542,.593-.147,.141-.25,.292-.652,1.483-.438,1.295-.498,1.654-.771,1.72-.333,.081-.719-.341-.949-.593-.552-.604-.44-1-.83-1.245-.495-.311-1.271-.048-1.72,.237-1.033,.657-.985,1.841-1.423,1.839-.453-.003-.855-1.268-.949-2.194-.041-.407-.102-1.01,.119-1.661,.624-1.836,2.816-2.049,2.728-2.906-.062-.607-1.232-1.185-1.898-.89-.555,.246-.366,.924-.89,1.305-1.034,.752-3.316-.768-4.211-1.364-1.052-.701-1.913-1.274-2.372-2.372-.378-.905-.067-1.17-.474-2.076-.481-1.069-1.616-2.261-2.669-2.135-.918,.11-1,1.129-1.898,1.186-.784,.05-.98-.711-2.372-1.364-.341-.16-1.948-.914-2.55-.356-.521,.483-.082,1.753,.297,2.847,.812,2.35,1.306,3.043,1.483,3.855,.119,.545,.215,1.145,.03,1.824-.198,.726-.061,1.175,.512,2.913,.419,1.274-.543,2.399-1.535,3.002-1.101,.67-2.343-.367-2.936,.267-.467,.499,.089,1.69-1.034,2.48-1.446,1.034-2.663,1.343-3.058,.367-.359-.885-1.401-1.226-1.824-1.379-2.04-.738-4.214,.809-4.871,1.245-.535,.355-2.356,1.731-2.091,3.002,.157,.752,.881,.662,1.557,1.668,1.166,1.737,.408,4.093,.334,4.315-.399,1.183-.829,1.048-1.068,2.135-.336,1.532,.375,2.461-.2,3.025-.301,.295,.009,.38-1.171,.638-.567,.124-1.119,.178-1.394,.689-.074,.138-.443,.669,.615,1.327,1.453,.903,1.057,.491,1.216,.815,.374,.768-.255,1.808-.601,2.38-.604,.999-.979,.912-1.735,1.913-1.104,1.46-.673,2.132-1.512,2.691-.984,.656-2.51,.352-3.269,.2-.994-.198-1.623-.554-2.091-.2-.37,.28-.394,.818-.4,.956-.047,1.036,.854,1.535,1.379,2.424,.617,1.044,.382,2.311-.111,4.804-.731,3.692-1.397,3.326-1.29,4.826,.118,1.645,.388,1.496,1.69,4.003,.461,.888,1.495,3.454,1.223,4.137-.375,.941-1.606,.739-2.246,1.801-.731,1.213,.024,2.888,.067,2.98,.732,1.57,2.081,1.46,2.402,2.825,.191,.812-.083,1.718-.489,2.313-.66,.966-1.598,1.015-1.624,1.557-.024,.522,.832,.793,1.757,1.423,2.336,1.591,1.747,3.179,3.447,3.914,1.439,.622,2.018-.447,4.292,.289,.258,.083,.839,.33,2.002,.823,1.967,.834,1.786,.823,2.357,1.023,2.091,.733,2.983,.35,3.381,1.045,.422,.737-.205,1.824-.334,2.046-.633,1.097-1.498,1.12-2.402,1.957-.883,.818-.743,1.432-1.579,3.67-1.08,2.889-1.599,2.63-2.513,5.338-.338,1.002-.153,1.605-.096,3.421,.034,1.104-.531,2.577-.119,3.036,.79,.88,2.436,.509,5.694-.267,5.393-1.285,8.889-2.159,10.883-1.157,1.27,.638,1.868,1.216,1.868,1.216,.917,.885,1.128,1.691,1.631,1.661,.587-.036,.597-1.151,1.364-1.334,.489-.117,.666,.293,2.076,.919,1.037,.461,1.245,.374,1.483,.712,.377,.535,.005,.97,.356,1.898,.032,.084,.445,1.15,.919,1.127,.506-.024,.884-1.28,1.008-2.076,.167-1.073-.13-1.3,.119-1.75,.52-.94,2.562-1.292,3.944-.534,1.233,.677,1.033,1.74,2.135,2.165,.251,.097,.827,.259,3.47-.83,2.992-1.233,3.047-1.767,4.389-1.839,1.273-.068,2.328,.354,2.669-.178,.264-.412-.184-.953,.178-1.453,.224-.309,.674-.487,1.068-.445,.927,.101,1.137,1.386,1.868,1.364,.479-.014,.525-.572,1.157-.682,.692-.121,1.339,.426,1.572,.623,.856,.724,.703,1.389,1.275,1.572,.589,.188,1.463-.29,1.779-1.038,.02-.046,.336-.826-.059-1.423-.428-.647-1.335-.541-1.394-.949-.043-.298,.43-.419,.563-.89,.116-.409-.09-.843-.534-1.453-1.218-1.677-2.223-1.929-2.224-2.61,0-.367,.292-.666,1.512-1.453,1.236-.797,2.195-1.302,2.92-1.693Z"/>
<path class="h" d="M76.031,86.635c.39,.382,2.874,1.519,4.243,1.409,1.027-.083,2.036-1.382,3.677-1.661,3.705-.629,2.047-3.417,3.025-4.211,2.02-1.638,5.077,.865,5.397,1.038,1.947,1.055,2.268,1.297,3.855,1.394,.175,.011,1.78,.363,3.796-.119,1.654-.395,2.225-.533,2.965-.297,.192,.061,1.279,.409,1.601,1.305,.275,.767-.302,1.122-.415,2.313-.157,1.651,.757,3.03,1.068,3.499,.773,1.167,1.498,.825,1.72,1.898,.376,1.82,.465,3.855-.119,4.685-.639,.907-1.812,.913-2.728,.652-.862-.245-.373-.783-1.257-.984-.475-.108-1.574-.545-1.859,1.111-.083,.482,.354,.67,1.159,1.415,1.051,.974,1.711,1.194,1.661,1.601-.038,.311-.464,.514-1.127,.83-.748,.357-.486,.31-.86,.593-.424,.322-.671,1.083-.578,1.713,.087,.593-.072,.443,.549,1.49,.302,.51,.564,.965,.415,1.364-.159,.425-.656,.514-1.186,.712-1.205,.448-1.226,.532-2.906,3.232-.69,1.11-.841,1.587-1.374,1.795-1.26,.492-2.146-.185-3.727,.133-1.411,.284-1.627,1.144-3.262,1.305-.848,.084-.827-.144-1.483-.059-1.823,.236-2.022,2.218-3.914,3.173-1.481,.748-3.317-.314-4.389-.474-1.969-.295-1.98-.404-4.033-.919-1.87-.47-2.007,.05-4.863-.178-2.087-.167-4.149,.22-6.235-.942-1.528-.851-2.929-2.242-3.432-3.862-.216-.694-.225-1.471-.771-1.72-.443-.202-.911,.092-1.779,.474,0,0-1.339,.589-2.787,.949-2.496,.621-3.473-.778-4.626,.059-.923,.67-.183,2.119-1.394,2.847-.627,.377-1.588,.161-2.105,.119-.173-.014-2.037-.002-2.965-1.305-.655-.919-.379-1.475-.934-1.675-.401-.145-1.211,.141-1.679,.499-.974,.746-.62,1.041-1.183,1.176-.289,.069-.827-.297-1.898-1.008-.96-.637-1.278-.941-1.512-1.201,0,0-.379-.421-.682-.934-.591-1.003-1.069-2.669-.497-5.498"/>
<path class="h" d="M45.311,113.381c-.261,.325-.962,.989-1.156,1.766-.074,.295-.185,.739-.119,1.305,.103,.883,.538,1.207,.356,1.483-.193,.291-.915,.287-1.423,0-.66-.373-.588-1.012-1.068-1.127-.49-.117-1.162,.409-1.364,1.008-.206,.612,.104,1.223,.356,1.72,.308,.607,.522,.638,.712,1.186,.07,.201,.36,1.041,0,1.364-.345,.31-1.176,.043-1.601-.415-.197-.212-.144-.29-.356-.534-.282-.324-.813-.689-1.305-.652-.818,.062-.902,1.191-1.601,1.245-.809,.063-1.576-1.378-1.72-1.661-.582-1.148-.352-1.886-.89-2.135-.434-.201-1.04,.068-1.364,.415-.435,.467-.388,1.105-.356,1.542,.076,1.035,.563,1.149,.474,1.779-.026,.186-.1,.397-1.483,1.779-.822,.821-1.171,1.121-1.127,1.542,.026,.253,.166,.277,.474,.771,.327,.523,.789,1.264,.534,1.72-.218,.39-.936,.528-1.423,.297-.41-.194-.564-.605-.771-1.186-.301-.843-.146-1.051-.356-1.779-.127-.44-.422-1.464-1.245-1.957-.781-.468-1.342-.042-1.779-.534-.323-.363-.29-.902-.237-1.779,.067-1.111,.333-1.361,.119-1.72-.341-.571-1.497-.747-2.076-.297-.363,.283-.214,.591-.534,1.483-.362,1.011-.696,1.008-1.423,2.432-.51,.997-.373,1.051-.712,1.542-.627,.909-1.469,1.79-2.135,1.601-4.389-1.245-3.244,1.461-5.694,.534-.356-.135-2.765-1.047-3.381-3.084-.302-1.001,.087-1.418-.356-3.025-.276-1-.529-1.87-1.305-2.254-.869-.43-1.896-.005-2.194,.119-.17,.07-.7,.307-1.186,.83-.362,.391-.532,.761-.83,1.423-.503,1.119-.378,1.318-.712,1.601-.693,.587-1.551,.541-1.694,.493-.221-.074-1.303-.415-1.232-.902,.131-.899,.586-.5,1.41-1.289,.731-.7,.655-1.309,.745-1.446,.536-.813,.169-1.236,.652-2.787,.27-.866,.404-1.299,.83-1.601,.711-.504,1.41-.068,1.779-.534,.391-.494-.296-1.109,.059-2.016,.326-.833,1.246-1.183,1.423-1.245,.608-.215,.736,.017,1.245-.119,1.354-.36,1.117-2.175,2.965-3.677,.423-.344,.899-.625,.83-.83-.117-.348-1.604,.111-1.898-.415-.203-.364,.232-1.083,.771-1.423,.859-.543,1.911-.081,1.957-.059,.883,.405,1.031,.997,1.542,1.186,.841,.311,1.931-.935,2.379-1.775"/>
<path class="marker" d="M26.971,101.426c1.164,.613,1.596,2.056,.983,3.213l-2.098,3.331-2.105-3.331c-.369-.697-.369-1.54,0-2.237,.62-1.157,2.063-1.596,3.22-.976Zm-.007,2.098c0-.613-.495-1.115-1.108-1.115-.62,0-1.115,.502-1.115,1.115s.495,1.108,1.115,1.108c.613,0,1.108-.495,1.108-1.108Z"/>
<path class="marker" d="M9.752,54.21c1.157,.62,1.596,2.063,.976,3.22l-2.098,3.331-2.098-3.331c-.376-.704-.376-1.54,0-2.244,.62-1.157,2.063-1.596,3.22-.976Zm-.007,2.098c0-.613-.502-1.108-1.115-1.108s-1.108,.495-1.108,1.108,.495,1.115,1.108,1.115,1.115-.502,1.115-1.115Z"/></svg>