<svg xmlns="http://www.w3.org/2000/svg" width="516.718" height="615.5" viewBox="0 0 516.718 615.5">
  <g id="Group_293" data-name="Group 293" transform="translate(-227.577 -2368.797)">
    <g id="Group_285" data-name="Group 285" transform="translate(229.078 2370.309)">
      <path id="Path_733" data-name="Path 733" d="M560.855,981.521c5.241-2.829,7.924-4.406,8.749-7.663,1.092-4.319-2-7.94.14-9.808,1.2-1.052,2.609-.29,7.393-.143,5.378.163,8.067.247,9.951-1.279,3.2-2.589,2.713-8.625,1.563-12.226-1.166-3.655-3.464-6.207-7.249-9.38a82.9,82.9,0,0,0-16.776-10.8c-11.237-5.7-22.061-11.194-29.851-21.323a49.852,49.852,0,0,1-8.812-17.628c-3.09-11.632.695-15.61-3.411-22.174-5.382-8.6-16.135-8.565-16.2-13.93-.037-2.639,2.539-4.59,5.118-6.541,4.316-3.267,8.585-4.252,25.869-6.821,8.021-1.193,7.947-1.106,8.816-1.423,9.046-3.3,8.525-9.694,17.341-15.637,8.839-5.956,13.656-2.422,19.048-8.812,3.578-4.239,1.974-6.407,6.254-11.939,1.413-1.827,5.879-7.593,13.078-9.668,9.407-2.709,14.682,3.421,20.187-.568,3.678-2.666,4.7-7.847,5.118-9.951a20.07,20.07,0,0,0-.284-9.1c-1.39-4.911-3.972-5.876-9.1-12.226-5.091-6.307-9.31-11.531-8.528-17.341.468-3.471,2.151-2.916,3.982-8.244.6-1.747,3.6-10.506-.284-17.344-1.38-2.422-2.034-1.811-4.834-5.969-3.728-5.535-3.725-8.331-3.7-9.1.087-2.4,1.016-2.4,1.139-4.83.24-4.767-3.127-8.489-3.7-9.1-2.719-2.913-4.266-1.971-8.812-5.118-3.324-2.3-6.384-4.416-7.109-7.677-.745-3.354,1.69-4.744,5.689-13.646a54.086,54.086,0,0,0,3.979-11.371c1-4.63,1.717-7.937.568-11.655-1.5-4.851-4.326-4.46-7.105-9.668-3.838-7.185-.09-10.99-3.7-15.353-4.359-5.268-12.925-3.444-13.362-6.253-.444-2.863,8.431-4.887,8.244-9.1-.1-2.375-3.411-3.371-5.118-4.55a5.852,5.852,0,0,1-2.415-2.7c-.341-.628-.648-2.018-1.707-2.7-2.7-1.744-2.692-1.663-4.69-2.843-1.874-1.109-5.532,5.525-11.087,5.4-1.122-.027-3.24-.347-8.244-5.117-8.4-8.007-7.727-12.153-12.226-14.5-7.539-3.935-18.547,2.953-20.183,3.979-9.611,6.016-14.414,16.542-20.755,15.637a15.32,15.32,0,0,0-3.982-.284c-.955.067-4.787.344-7.389,2.843-.708.678-1.2,1.4-3.127,7.105-2.1,6.21-2.392,7.93-3.7,8.248-1.6.387-3.444-1.637-4.55-2.843-2.642-2.9-2.108-4.794-3.979-5.973-2.375-1.493-6.09-.231-8.244,1.139-4.954,3.147-4.72,8.826-6.825,8.812-2.171-.013-4.1-6.076-4.546-10.519a18.075,18.075,0,0,1,.568-7.961c2.99-8.8,13.5-9.824,13.078-13.93-.3-2.909-5.909-5.679-9.1-4.266-2.659,1.179-1.754,4.429-4.262,6.257-4.957,3.6-15.9-3.685-20.187-6.541-5.041-3.357-9.17-6.106-11.371-11.371-1.814-4.336-.324-5.609-2.275-9.952-2.305-5.124-7.747-10.837-12.794-10.235-4.4.528-4.794,5.412-9.1,5.685-3.755.241-4.7-3.4-11.371-6.537-1.637-.768-9.34-4.383-12.226-1.707-2.5,2.315-.391,8.405,1.423,13.649,3.892,11.261,6.26,14.585,7.105,18.476a17.64,17.64,0,0,1,.144,8.742c-.949,3.481-.291,5.632,2.452,13.967,2.011,6.11-2.6,11.5-7.356,14.394-5.278,3.214-11.231-1.76-14.074,1.279-2.238,2.392.428,8.1-4.957,11.886-6.932,4.957-12.764,6.437-14.658,1.76-1.72-4.243-6.718-5.876-8.742-6.611-9.781-3.537-20.2,3.882-23.35,5.97-2.562,1.7-11.294,8.3-10.022,14.394.755,3.608,4.226,3.173,7.463,8,5.592,8.324,1.958,19.619,1.6,20.681-1.911,5.672-3.975,5.024-5.118,10.235-1.61,7.346,1.8,11.8-.959,14.5-1.443,1.413.043,1.821-5.615,3.056-2.719.595-5.365.852-6.681,3.307-.354.658-2.125,3.2,2.95,6.36,6.965,4.329,5.068,2.352,5.829,3.908,1.794,3.681-1.223,8.669-2.88,11.408-2.9,4.79-4.693,4.373-8.315,9.17-5.291,7-3.23,10.222-7.252,12.9-4.717,3.143-12.029,1.687-15.67.962-4.764-.952-7.78-2.656-10.022-.962-1.774,1.343-1.891,3.922-1.921,4.586-.221,4.967,4.092,7.356,6.611,11.618,2.956,5,1.834,11.081-.531,23.03-3.508,17.7-6.7,15.944-6.187,23.133.565,7.89,1.861,7.172,8.1,19.191,2.211,4.256,7.169,16.559,5.863,19.829-1.8,4.51-7.7,3.544-10.766,8.635-3.5,5.816.114,13.843.321,14.287,3.508,7.526,9.971,7,11.511,13.539a14.716,14.716,0,0,1-2.345,11.087c-3.16,4.633-7.66,4.864-7.78,7.463-.117,2.505,3.985,3.8,8.421,6.825,11.2,7.63,8.375,15.24,16.526,18.764,6.895,2.983,9.674-2.141,20.574,1.386,1.239.4,4.025,1.58,9.6,3.945,9.427,4,8.558,3.942,11.3,4.9,10.022,3.511,14.3,1.677,16.2,5.011,2.021,3.534-.985,8.742-1.6,9.808-3.037,5.258-7.182,5.368-11.515,9.383-4.232,3.922-3.561,6.861-7.57,17.588-5.174,13.853-7.663,12.61-12.046,25.588-1.624,4.8-.735,7.7-.464,16.4.167,5.291-2.545,12.353-.568,14.555,3.792,4.216,11.675,2.442,27.292-1.279,25.856-6.16,42.612-10.346,52.169-5.545a39.259,39.259,0,0,1,8.956,5.829c4.4,4.246,5.408,8.108,7.82,7.961,2.813-.17,2.863-5.515,6.537-6.4,2.345-.561,3.193,1.4,9.951,4.406,4.971,2.211,5.969,1.8,7.109,3.414,1.8,2.566.02,4.65,1.7,9.1.154.4,2.135,5.512,4.406,5.4,2.425-.117,4.239-6.137,4.834-9.951.8-5.141-.625-6.23.568-8.385,2.5-4.506,12.283-6.2,18.907-2.559,5.909,3.244,4.951,8.341,10.235,10.375,1.206.464,3.962,1.243,16.632-3.979,14.341-5.913,14.6-8.472,21.035-8.815,6.106-.324,11.161,1.7,12.794-.852,1.266-1.974-.879-4.57.852-6.965a5.825,5.825,0,0,1,5.118-2.131c4.446.481,5.455,6.644,8.956,6.538,2.3-.07,2.516-2.743,5.545-3.27,3.317-.578,6.417,2.041,7.533,2.986,4.106,3.467,3.371,6.661,6.113,7.533,2.823.9,7.015-1.39,8.528-4.974.094-.22,1.61-3.962-.284-6.825-2.051-3.1-6.4-2.589-6.681-4.547-.2-1.426,2.058-2.008,2.7-4.266.555-1.961-.434-4.039-2.559-6.965-5.843-8.037-10.66-9.25-10.663-12.51,0-1.761,1.4-3.193,7.249-6.965C552.787,985.814,557.384,983.392,560.855,981.521Z" transform="translate(-225.631 -540.322)" fill="none" stroke="#f2f2f1" stroke-miterlimit="10" stroke-width="3"/>
      <path id="Path_736" data-name="Path 736" d="M484.7,681.309c1.871,1.834,13.78,7.286,20.337,6.758,4.924-.4,9.761-6.628,17.628-7.961,17.762-3.013,9.811-16.382,14.5-20.187,9.681-7.854,24.339,4.146,25.872,4.977,9.333,5.054,10.87,6.217,18.48,6.681a46.407,46.407,0,0,0,18.2-.571c7.93-1.894,10.666-2.552,14.214-1.42.919.294,6.133,1.958,7.677,6.254,1.32,3.675-1.446,5.378-1.991,11.087-.752,7.917,3.628,14.524,5.118,16.776,3.7,5.592,7.182,3.952,8.244,9.1,1.8,8.725,2.232,18.483-.568,22.458-3.06,4.349-8.685,4.38-13.078,3.13-4.132-1.179-1.787-3.755-6.023-4.717-2.278-.518-7.546-2.616-8.913,5.325-.4,2.308,1.7,3.21,5.555,6.781,5.037,4.67,8.2,5.722,7.96,7.677-.184,1.493-2.225,2.465-5.4,3.982-3.588,1.71-2.332,1.483-4.122,2.843-2.034,1.543-3.22,5.191-2.773,8.208.418,2.843-.347,2.124,2.629,7.145,1.45,2.442,2.706,4.623,1.991,6.537-.762,2.034-3.143,2.465-5.686,3.411-5.779,2.148-5.879,2.549-13.933,15.5-3.307,5.318-4.032,7.606-6.584,8.6-6.04,2.358-10.286-.885-17.865.635-6.765,1.36-7.8,5.482-15.637,6.257-4.062.4-3.965-.691-7.105-.284-8.739,1.129-9.694,10.633-18.764,15.209-7.1,3.585-15.9-1.5-21.038-2.275-9.437-1.416-9.49-1.934-19.332-4.406-8.963-2.252-9.624.24-23.313-.852-10-.8-19.889,1.052-29.888-4.513-7.326-4.082-14.044-10.75-16.452-18.516-1.036-3.327-1.079-7.052-3.7-8.244-2.121-.969-4.366.444-8.528,2.275a94.14,94.14,0,0,1-13.362,4.546c-11.966,2.976-16.649-3.728-22.174.287-4.423,3.21-.879,10.155-6.681,13.646-3,1.807-7.613.768-10.1.568-.828-.067-9.761-.01-14.214-6.253-3.14-4.406-1.814-7.072-4.476-8.034-1.921-.692-5.806.678-8.047,2.395-4.67,3.575-2.97,4.991-5.672,5.639-1.386.331-3.965-1.427-9.1-4.834-4.6-3.057-6.123-4.51-7.249-5.759a31.288,31.288,0,0,1-3.27-4.476c-2.836-4.807-5.124-12.794-2.382-26.357" transform="translate(-120.836 -266.613)" fill="none" stroke="#f2f2f1" stroke-miterlimit="10" stroke-width="3"/>
      <path id="Path_738" data-name="Path 738" d="M459.082,736.738c-1.253,1.553-4.61,4.74-5.542,8.465a16.521,16.521,0,0,0-.571,6.257c.5,4.232,2.582,5.786,1.707,7.105-.925,1.4-4.386,1.38-6.825,0-3.16-1.787-2.816-4.851-5.114-5.4-2.352-.561-5.572,1.961-6.541,4.834-.989,2.936.5,5.862,1.707,8.244,1.476,2.909,2.5,3.06,3.411,5.686.334.966,1.727,4.991,0,6.541-1.657,1.487-5.639.207-7.677-1.991-.945-1.019-.692-1.393-1.707-2.559-1.35-1.55-3.9-3.3-6.253-3.126-3.922.294-4.323,5.706-7.677,5.969-3.875.3-7.556-6.6-8.244-7.961-2.789-5.5-1.687-9.039-4.262-10.235-2.081-.962-4.987.327-6.541,1.991-2.084,2.238-1.861,5.3-1.7,7.393.364,4.961,2.7,5.505,2.272,8.528-.124.892-.478,1.9-7.105,8.528-3.942,3.938-5.612,5.375-5.4,7.393.124,1.212.8,1.33,2.275,3.694,1.563,2.505,3.781,6.06,2.556,8.245-1.046,1.871-4.483,2.532-6.821,1.423-1.968-.932-2.7-2.9-3.695-5.686-1.443-4.042-.7-5.041-1.707-8.528-.608-2.111-2.024-7.019-5.97-9.384-3.748-2.245-6.434-.2-8.532-2.559-1.547-1.74-1.39-4.326-1.136-8.528.321-5.328,1.593-6.524.568-8.245-1.633-2.739-7.176-3.584-9.948-1.423-1.744,1.36-1.029,2.836-2.559,7.109-1.737,4.847-3.337,4.834-6.825,11.655-2.442,4.78-1.79,5.041-3.411,7.393-3,4.359-7.045,8.582-10.235,7.676-21.038-5.97-15.55,7.005-27.292,2.559-1.707-.645-13.255-5.018-16.2-14.782-1.45-4.8.418-6.8-1.707-14.5-1.323-4.8-2.535-8.963-6.254-10.8-4.166-2.061-9.089-.023-10.519.568a16.516,16.516,0,0,0-5.686,3.982c-1.737,1.871-2.555,3.644-3.982,6.821-2.412,5.368-1.811,6.32-3.411,7.677a10.408,10.408,0,0,1-8.121,2.365c-1.059-.358-6.247-1.991-5.906-4.326.628-4.309,2.809-2.4,6.758-6.177,3.5-3.354,3.14-6.277,3.571-6.928,2.572-3.9.815-5.926,3.13-13.362,1.289-4.152,1.937-6.23,3.979-7.676,3.407-2.419,6.761-.331,8.528-2.559,1.877-2.368-1.416-5.318.284-9.668,1.563-4,5.973-5.669,6.825-5.969,2.916-1.032,3.528.08,5.97-.568,6.491-1.727,5.355-10.426,14.217-17.628,2.028-1.65,4.309-3,3.979-3.979-.558-1.67-7.69.531-9.1-1.991-.976-1.747,1.112-5.191,3.695-6.825,4.119-2.6,9.16-.384,9.384-.284,4.232,1.941,4.941,4.78,7.389,5.686,4.035,1.493,9.256-4.483,11.4-8.508" transform="translate(-242.477 -193.826)" fill="none" stroke="#f2f2f1" stroke-miterlimit="10" stroke-width="3"/>
    </g>
  </g>
</svg>
