<svg xmlns="http://www.w3.org/2000/svg" width="342.79" height="350.305" viewBox="0 0 342.79 350.305">
  <path id="Path_767" data-name="Path 767" d="M358.629,591.25V414.626m36.782,57.4,11.794,16.188V591.25H69.416m50.426-119.226h280.6l-41.812-57.4m-238.787,0H358.629M119.842,591.25V382.18H69.416V591.25m50.426-103.038H407.206m-271.5,86.156h4.475V506.563a12.8,12.8,0,0,0-4.475-9.609,12.8,12.8,0,0,0-4.475,9.609v67.805ZM155.9,500.4a12.6,12.6,0,0,1,2.821-3.446,12.752,12.752,0,0,1,4.463,9.609v67.805h-8.938V506.563A12.8,12.8,0,0,1,155.9,500.4Zm21.357,6.163a12.832,12.832,0,0,1,4.463-9.609,12.8,12.8,0,0,1,4.475,9.609v67.805h-8.938V506.563m23,0a12.8,12.8,0,0,1,4.475-9.609,12.8,12.8,0,0,1,4.475,9.609v67.805h-8.95V506.563m30.307-6.163a12.658,12.658,0,0,1,1.642,6.163v67.805h-8.938V506.563a12.8,12.8,0,0,1,4.475-9.609A12.814,12.814,0,0,1,230.558,500.4Zm23,0a12.6,12.6,0,0,0-2.821-3.446,12.752,12.752,0,0,0-4.463,9.609v67.805h8.938V506.563A12.8,12.8,0,0,0,253.557,500.4Zm23.01,0a12.8,12.8,0,0,1,1.653,6.163v67.805h-8.95V506.563a12.8,12.8,0,0,1,4.475-9.609A12.814,12.814,0,0,1,276.567,500.4Zm46.009,0a12.8,12.8,0,0,1,1.654,6.163v67.805h-8.95V506.563a12.8,12.8,0,0,1,4.475-9.609A12.6,12.6,0,0,1,322.576,500.4Zm47.582,0a12.814,12.814,0,0,1,2.821-3.446,12.8,12.8,0,0,1,4.475,9.609v67.805H368.5V506.563A12.8,12.8,0,0,1,370.158,500.4ZM115.506,382.18V286.346m-8.661,5.458v5.481M81.569,291.8v5.481M99.376,291.8v5.481M89.882,291.8v5.481m5.319-51.34v6.163M180.455,382.18V286.346M138.713,382.18V286.346m33.093,5.458v5.481M146.518,291.8v5.481m17.807-5.481v5.481m-9.493-5.481v5.481m-16.119-10.939h41.742m-20.3-34.238,4.683,5.666a18.695,18.695,0,0,1,15.622,28.572m-20.3-40.4v6.163m24.641,162.518V382.18H134.377v32.446M94.253,420.5v-12m0,47.073V443.556m0,47.073v-12m0,47.073v-12m3.4-184.6v-5.053a11.957,11.957,0,0,0-3.18-8.025,11.957,11.957,0,0,0-3.18,8.025v10.7h6.36ZM299.577,500.4a12.914,12.914,0,0,1,1.642,6.163v67.805h-8.938V506.563a12.8,12.8,0,0,1,4.475-9.609A12.813,12.813,0,0,1,299.577,500.4Zm46.009,0a12.658,12.658,0,0,1,1.642,6.163v67.805H338.29V506.563a12.8,12.8,0,0,1,4.475-9.609A12.815,12.815,0,0,1,345.586,500.4Zm51.744,6.163a12.8,12.8,0,0,0-4.475-9.609,12.752,12.752,0,0,0-4.463,9.609v67.805h8.938V506.563M94.207,366.2a5.677,5.677,0,1,0-5.677-5.677A5.68,5.68,0,0,0,94.207,366.2Zm64.949,0a5.677,5.677,0,1,0-5.677-5.677A5.673,5.673,0,0,0,159.156,366.2Zm-19.3-79.854a18.693,18.693,0,0,1,15.61-28.572l4.683-5.666M73.752,382.18V286.346m0,0h41.754M95.2,252.108l4.683,5.666a18.695,18.695,0,0,1,15.622,28.572m-40.609,0a18.7,18.7,0,0,1,15.622-28.572l4.683-5.666m66.048,66.51a11.865,11.865,0,0,0-1.827-2.6,11.958,11.958,0,0,0-3.18,8.025v10.7h6.371v-10.7A12,12,0,0,0,161.249,318.618Z" transform="translate(-66.916 -243.445)" fill="none" stroke="#f2f2f1" stroke-linecap="round" stroke-linejoin="round" stroke-width="5"/>
</svg>
