<svg xmlns="http://www.w3.org/2000/svg" width="88.251" height="69.792" viewBox="0 0 88.251 69.792">
  <g id="Group_278" data-name="Group 278" transform="translate(1.5 1.5)">
    <g id="Group_277" data-name="Group 277">
      <path id="Path_743" data-name="Path 743" d="M223.733,258.017a1.161,1.161,0,0,0,1.152,1.152h21.98a1.176,1.176,0,0,0,1.152-1.152A12.2,12.2,0,0,0,235.9,246.963a10.827,10.827,0,0,0-1.174.064A12.18,12.18,0,0,0,223.733,258.017Z" transform="translate(-223.733 -192.377)" fill="none" stroke="#fdf266" stroke-linecap="round" stroke-linejoin="round" stroke-width="3"/>
      <path id="Path_744" data-name="Path 744" d="M232.666,253.148a6.092,6.092,0,1,0-6.1-6.082A6.065,6.065,0,0,0,232.666,253.148Z" transform="translate(-220.524 -199.181)" fill="none" stroke="#fdf266" stroke-linecap="round" stroke-linejoin="round" stroke-width="3"/>
      <path id="Path_745" data-name="Path 745" d="M246.935,253.148a6.092,6.092,0,1,0-6.082-6.082A6.084,6.084,0,0,0,246.935,253.148Z" transform="translate(-204.32 -199.181)" fill="none" stroke="#fdf266" stroke-linecap="round" stroke-linejoin="round" stroke-width="3"/>
      <path id="Path_746" data-name="Path 746" d="M261.236,253.148a6.092,6.092,0,1,0-6.1-6.082A6.084,6.084,0,0,0,261.236,253.148Z" transform="translate(-188.128 -199.181)" fill="none" stroke="#fdf266" stroke-linecap="round" stroke-linejoin="round" stroke-width="3"/>
      <path id="Path_747" data-name="Path 747" d="M253.038,227.486a6.092,6.092,0,1,0-6.1,6.1A6.1,6.1,0,0,0,253.038,227.486Z" transform="translate(-204.32 -221.383)" fill="none" stroke="#fdf266" stroke-linecap="round" stroke-linejoin="round" stroke-width="3"/>
      <path id="Path_748" data-name="Path 748" d="M238.013,258.017a1.176,1.176,0,0,0,1.152,1.152h21.98a1.161,1.161,0,0,0,1.152-1.152,12.185,12.185,0,0,0-12.121-11.054,11.127,11.127,0,0,0-1.174.064A12.18,12.18,0,0,0,238.013,258.017Z" transform="translate(-207.54 -192.377)" fill="none" stroke="#fdf266" stroke-linecap="round" stroke-linejoin="round" stroke-width="3"/>
      <path id="Path_749" data-name="Path 749" d="M252.3,258.017a1.161,1.161,0,0,0,1.152,1.152h21.98a1.161,1.161,0,0,0,1.152-1.152,12.2,12.2,0,0,0-12.121-11.054,10.826,10.826,0,0,0-1.174.064A12.18,12.18,0,0,0,252.3,258.017Z" transform="translate(-191.337 -192.377)" fill="none" stroke="#fdf266" stroke-linecap="round" stroke-linejoin="round" stroke-width="3"/>
      <path id="Path_750" data-name="Path 750" d="M238.013,238.433a1.176,1.176,0,0,0,1.152,1.152h21.98a1.161,1.161,0,0,0,1.152-1.152,12.2,12.2,0,0,0-24.284,0Z" transform="translate(-207.54 -214.575)" fill="none" stroke="#fdf266" stroke-linecap="round" stroke-linejoin="round" stroke-width="3"/>
      <path id="Path_751" data-name="Path 751" d="M229.423,240.612v-3.649H290.39v3.649" transform="translate(-217.281 -203.716)" fill="none" stroke="#fdf266" stroke-linecap="round" stroke-linejoin="round" stroke-width="3"/>
      <path id="Path_752" data-name="Path 752" d="M243.7,242.551v-7.3" transform="translate(-201.088 -205.655)" fill="none" stroke="#fdf266" stroke-linecap="round" stroke-linejoin="round" stroke-width="3"/>
    </g>
  </g>
</svg>
