<svg xmlns="http://www.w3.org/2000/svg" width="35.48" height="24.04" viewBox="0 0 35.48 24.04">
  <path id="Path_754" data-name="Path 754" d="M181.266,232.386m0-.864-4.433,11.106H155.67a2.048,2.048,0,0,1-2.047-2.047V226.106a2.048,2.048,0,0,1,2.047-2.047h23.548a2.048,2.048,0,0,1,2.047,2.047v2.115m-12.889,7.21a1.277,1.277,0,1,0,0,2.555h8.456v7.74a1.373,1.373,0,0,0,1.373,1.373h9.9v-9.264a2.4,2.4,0,0,0-2.4-2.4H168.377ZM185.7,247.1v-9.264m-29.379-10.43h15.734m-15.734,2.5h18.892m-18.892,2.5h13.805m-13.805,4.1h8.77m-8.77,2.572h10.217m18.162-7.424a3.434,3.434,0,1,0-3.434,3.434A3.434,3.434,0,0,0,184.7,231.655Z" transform="translate(-153.123 -223.559)" fill="none" stroke="#fdf266" stroke-linecap="round" stroke-linejoin="round" stroke-width="1"/>
</svg>
