<svg xmlns="http://www.w3.org/2000/svg" xmlns:xlink="http://www.w3.org/1999/xlink" width="406.954" height="286.502" viewBox="0 0 406.954 286.502">
  <g id="Group_349" data-name="Group 349" transform="translate(0 0)">
    <g id="Group_348" data-name="Group 348" transform="translate(0 0)" clip-path="url(#clip-path)">
      <path id="Path_834" data-name="Path 834" d="M131.733,226.7l-128.926-.3L.5,224.1V116.473A23.928,23.928,0,0,1,24.433,92.539h95.872a23.934,23.934,0,0,1,23.933,23.933h-2.312l2.312-.028.416,36.106a2.312,2.312,0,0,1-4.623.051l-.416-36.106v-.023a19.336,19.336,0,0,0-19.31-19.31H24.433a19.333,19.333,0,0,0-19.31,19.31V221.79l126.62.291a2.312,2.312,0,1,1-.009,4.623ZM73.257,22.321v2.312a32.985,32.985,0,1,0,32.985,32.985A33.024,33.024,0,0,0,73.257,24.632V20.009A37.608,37.608,0,1,1,35.649,57.617,37.607,37.607,0,0,1,73.257,20.009ZM32.316,130.3l.411,93.015a2.312,2.312,0,1,1-4.623.023l-.411-93.015a2.312,2.312,0,0,1,4.623-.023Zm84.375.643.411,93.015a2.312,2.312,0,1,1-4.623.023l-.411-93.015a2.312,2.312,0,0,1,4.623-.023ZM258.778,152.9l.314-55.943v.014a23.928,23.928,0,0,1,23.933-23.933H378.9a23.934,23.934,0,0,1,23.933,23.933V204.592L400.5,206.9l-128.973-.911a2.309,2.309,0,0,1,.032-4.618l126.647.892V96.968a19.336,19.336,0,0,0-19.31-19.31H283.026a19.333,19.333,0,0,0-19.31,19.31v.009l-.314,55.943a2.312,2.312,0,0,1-4.623-.023ZM331.85,2.812V5.123a32.987,32.987,0,1,0,32.985,32.99A33.032,33.032,0,0,0,331.85,5.123V.5a37.61,37.61,0,1,1-37.613,37.613A37.611,37.611,0,0,1,331.85.5Zm-40.941,107.98.411,93.01a2.312,2.312,0,1,1-4.623.023l-.411-93.01a2.312,2.312,0,0,1,4.623-.023Zm84.37.643.411,93.015a2.312,2.312,0,0,1-4.623.023l-.411-93.015a2.312,2.312,0,0,1,4.623-.023ZM271.552,280.072v2.312H132.436l-2.312-2.312V172.448a23.925,23.925,0,0,1,23.929-23.933H249.93a23.934,23.934,0,0,1,23.933,23.933V280.072l-2.311,2.312v-2.312H269.24V172.448a19.336,19.336,0,0,0-19.31-19.31H154.053a19.329,19.329,0,0,0-19.306,19.31V277.76h136.8v2.312h0ZM202.877,78.291V80.6a32.987,32.987,0,1,0,32.99,32.99,33.031,33.031,0,0,0-32.99-32.99V75.98a37.61,37.61,0,1,1-37.608,37.613A37.615,37.615,0,0,1,202.877,75.98Zm-40.941,107.98.411,93.01a2.312,2.312,0,1,1-4.623.023l-.411-93.01a2.312,2.312,0,0,1,4.623-.023Zm84.375.643.411,93.015a2.312,2.312,0,1,1-4.623.023l-.411-93.015a2.312,2.312,0,0,1,4.623-.023Z" transform="translate(1.812 1.811)" fill="#f2f2f1"/>
    </g>
  </g>
</svg>
