<svg xmlns="http://www.w3.org/2000/svg" width="33.092" height="33.087" viewBox="0 0 33.092 33.087">
  <path id="Path_753" data-name="Path 753" d="M424.7,239.9h8.768v-8.768H424.7Zm7.49-10.646v-7.156m-6.212,7.156V224.8m6.212,21.412v-4.435m-6.212,7.066v-7.066m16.512-3.783h-7.143m-12.525,0h-4.232v4.932m-2.924-9.892h7.156m16.758-6.027v6.027h-4.233m-12.525-1.9a1.879,1.879,0,0,1,1.879-1.879h8.768a1.879,1.879,0,0,1,1.879,1.879V239.9a1.879,1.879,0,0,1-1.879,1.879H424.7a1.879,1.879,0,0,1-1.879-1.879v-8.768m-7.158,1.969a1.317,1.317,0,1,0-1.388,1.242A1.316,1.316,0,0,0,415.668,233.1Zm11.621-9.541A1.317,1.317,0,1,0,425.9,224.8,1.316,1.316,0,0,0,427.289,223.557Zm6.212-2.706a1.317,1.317,0,1,0-1.388,1.242A1.317,1.317,0,0,0,433.5,220.85Zm7.388,4.911A1.317,1.317,0,1,0,439.5,227,1.316,1.316,0,0,0,440.889,225.762Zm4.233,12.295a1.317,1.317,0,1,0-1.388,1.242A1.318,1.318,0,0,0,445.122,238.057ZM433.5,247.6a1.317,1.317,0,1,0-1.388,1.242A1.317,1.317,0,0,0,433.5,247.6Zm-6.212,2.706a1.317,1.317,0,1,0-1.388,1.242A1.317,1.317,0,0,0,427.289,250.3Zm-7.388-5.99a1.317,1.317,0,1,0-1.388,1.242A1.318,1.318,0,0,0,419.9,244.314Z" transform="translate(-412.535 -218.96)" fill="none" stroke="#fdf266" stroke-linecap="round" stroke-linejoin="round" stroke-width="1"/>
</svg>
